<?xml version="1.0" encoding="UTF-8" standalone="no"?>
<!-- Created with Inkscape (http://www.inkscape.org/) -->

<svg
   xmlns:dc="http://purl.org/dc/elements/1.1/"
   xmlns:cc="http://creativecommons.org/ns#"
   xmlns:rdf="http://www.w3.org/1999/02/22-rdf-syntax-ns#"
   xmlns:svg="http://www.w3.org/2000/svg"
   xmlns="http://www.w3.org/2000/svg"
   version="1.1"
   width="146"
   height="146"
   id="svg2998">
  <defs
     id="defs3000" />
  <metadata
     id="metadata3003">
    <rdf:RDF>
      <cc:Work
         rdf:about="">
        <dc:format>image/svg+xml</dc:format>
        <dc:type
           rdf:resource="http://purl.org/dc/dcmitype/StillImage" />
        <dc:title></dc:title>
      </cc:Work>
    </rdf:RDF>
  </metadata>
  <g
     transform="translate(0,-906.36218)"
     id="layer1"
     style="display:inline">
    <path
       d="m 29.685708,1051.1609 c -2.12075,-0.1724 -3.13917,-0.5454 -3.13917,-1.1496 0,-0.2047 0.59555,-1.5041 1.32341,-2.8871 2.22743,-4.2323 3.01856,-7.0624 3.79028,-13.5588 l 0.6723,-5.6594 0.464919,-39.61907 0.27895,-37.85238 0.55297,-6.52811 c 0.43481,-5.13315 1.46398,-7.32038 3.749731,-12.07166 4.74742,-9.86811 11.05852,-15.45327 19.527,-19.49889 5.92175,-2.82899 8.37129,-3.51429 15.53379,-4.34587 5.12832,-0.59541 12.19029,-0.079 18.22717,1.33273 6.018221,1.40742 10.269932,3.6385 15.257052,8.00616 5.69844,4.9906 11.80053,14.67716 13.60384,21.59503 1.19085,4.56829 1.84178,12.47269 1.42534,17.30836 -0.33512,3.89147 -0.66244,5.5153 -2.09742,10.40477 -2.85245,9.71942 -7.23068,17.08787 -14.4616,24.33851 -4.807251,4.82038 -6.713451,6.31756 -10.483511,8.23425 -7.939061,4.03617 -14.191511,5.39877 -23.316161,5.08127 -8.74048,-0.3042 -12.08139,-1.3987 -18.93166,-6.20238 l -3.41898,-2.39753 -0.29585,14.79731 c -0.1952,9.7691 -0.43733,16.0931 -0.71223,18.6108 -0.2289,2.0974 -0.54716,5.2337 -0.70702,6.9695 -0.41095,4.4628 -1.25805,9.7906 -1.68721,10.612 -1.63272,3.1246 -8.14691,5.0503 -15.15594,4.4801 z m 51.91701,-53.63979 c 4.64968,-0.9526 10.25826,-4.34021 13.754311,-8.30764 3.06644,-3.4799 3.92619,-4.79303 5.836081,-8.91378 1.80363,-3.89166 1.84867,-4.04224 2.67487,-8.94198 0.83105,-4.92849 0.83891,-5.0593 0.71287,-11.82162 -0.14193,-7.6116 -0.44232,-9.87658 -1.88402,-14.20198 -1.3828,-4.14859 -2.743601,-7.06586 -5.242681,-11.2391 -2.00026,-3.34033 -2.74319,-4.30691 -5.382911,-7.00357 -3.2107,-3.27994 -5.35361,-4.87675 -9.53922,-7.10833 -4.74034,-2.52734 -9.54934,-3.71173 -15.0578,-3.70855 -6.0695,0.003 -9.79313,1.43774 -13.51171,5.20427 -5.64469,5.71754 -5.81858,6.79485 -5.84567,36.21626 -0.0147,16.46748 0.0776,18.74443 0.94232,23.09029 0.91538,4.60142 2.29436,7.36413 4.90569,9.82838 1.54333,1.4564 4.64576,3.61583 6.64009,4.62178 2.61713,1.32012 7.28264,2.58681 10.78294,2.92759 2.04575,0.19909 7.90725,-0.16929 10.21484,-0.64202 z"
       id="path3166"
       style="fill:#008080" />
  </g>
</svg>
