<?xml version="1.0" encoding="UTF-8" standalone="no"?>
<!-- Created with Inkscape (http://www.inkscape.org/) -->

<svg
   xmlns:dc="http://purl.org/dc/elements/1.1/"
   xmlns:cc="http://creativecommons.org/ns#"
   xmlns:rdf="http://www.w3.org/1999/02/22-rdf-syntax-ns#"
   xmlns:svg="http://www.w3.org/2000/svg"
   xmlns="http://www.w3.org/2000/svg"
   xmlns:sodipodi="http://sodipodi.sourceforge.net/DTD/sodipodi-0.dtd"
   xmlns:inkscape="http://www.inkscape.org/namespaces/inkscape"
   id="svg3074"
   version="1.1"
   inkscape:version="0.48.4 r9939"
   width="425"
   height="155"
   sodipodi:docname="logo.svg"
   inkscape:export-filename="/home/nesderl/blog/lepetitrhobeurre.github.com/logo.png"
   inkscape:export-xdpi="90"
   inkscape:export-ydpi="90">
  <metadata
     id="metadata3080">
    <rdf:RDF>
      <cc:Work
         rdf:about="">
        <dc:format>image/svg+xml</dc:format>
        <dc:type
           rdf:resource="http://purl.org/dc/dcmitype/StillImage" />
        <dc:title />
      </cc:Work>
    </rdf:RDF>
  </metadata>
  <defs
     id="defs3078" />
  <sodipodi:namedview
     pagecolor="#ffffff"
     bordercolor="#666666"
     borderopacity="1"
     objecttolerance="10"
     gridtolerance="10"
     guidetolerance="10"
     inkscape:pageopacity="0"
     inkscape:pageshadow="2"
     inkscape:window-width="1920"
     inkscape:window-height="1056"
     id="namedview3076"
     showgrid="false"
     inkscape:zoom="3.3503788"
     inkscape:cx="264"
     inkscape:cy="51.231132"
     inkscape:window-x="0"
     inkscape:window-y="24"
     inkscape:window-maximized="1"
     inkscape:current-layer="svg3074"
     showguides="true"
     inkscape:guide-bbox="true">
    <sodipodi:guide
       orientation="0,1"
       position="111.51284,270.46484"
       id="guide2988" />
  </sodipodi:namedview>
  <text
     xml:space="preserve"
     style="font-size:58.09976959px;font-style:normal;font-variant:normal;font-weight:normal;font-stretch:normal;line-height:125%;letter-spacing:0px;word-spacing:0px;fill:#000000;fill-opacity:1;stroke:none;font-family:Latin Modern Math;-inkscape-font-specification:Latin Modern Math"
     x="0.28370667"
     y="94.714653"
     id="text2982-1"
     sodipodi:linespacing="125%"><tspan
       sodipodi:role="line"
       id="tspan2984-7"
       x="0.28370667"
       y="94.714653"
       style="font-style:normal;font-variant:normal;font-weight:normal;font-stretch:normal;fill:#6c5353;font-family:Latin Modern Math;-inkscape-font-specification:Latin Modern Math">Le petit</tspan></text>
  <text
     xml:space="preserve"
     style="font-size:58.09976959px;font-style:normal;font-variant:normal;font-weight:normal;font-stretch:normal;line-height:125%;letter-spacing:0px;word-spacing:0px;fill:#000000;fill-opacity:1;stroke:none;font-family:Latin Modern Math;-inkscape-font-specification:Latin Modern Math"
     x="318.80319"
     y="96.677544"
     id="text2982-4-2"
     sodipodi:linespacing="125%"><tspan
       sodipodi:role="line"
       id="tspan2984-6-1"
       x="318.80319"
       y="96.677544"
       style="font-style:normal;font-variant:normal;font-weight:normal;font-stretch:normal;fill:#6c5353;font-family:Latin Modern Math;-inkscape-font-specification:Latin Modern Math">bert</tspan></text>
  <path
     style="fill:#008080"
     d="m 223.47317,152.98991 c -2.12075,-0.17247 -3.13917,-0.54548 -3.13917,-1.14966 0,-0.20471 0.59555,-1.50404 1.32341,-2.88708 2.22743,-4.23229 3.01856,-7.06241 3.79028,-13.55877 l 0.6723,-5.65939 0.46492,-39.61908 0.27895,-37.852383 0.55297,-6.528104 c 0.43481,-5.133152 1.46398,-7.320386 3.74973,-12.071665 4.74742,-9.868113 11.05852,-15.453266 19.527,-19.498888 5.92175,-2.828989 8.37129,-3.514294 15.53379,-4.345873 5.12832,-0.595409 12.19029,-0.07905 18.22717,1.332731 6.01822,1.407423 10.26993,3.638501 15.25705,8.006161 5.69844,4.990603 11.80053,14.677162 13.60384,21.595032 1.19085,4.568292 1.84178,12.472687 1.42534,17.308355 -0.33512,3.891469 -0.66244,5.5153 -2.09742,10.404775 -2.85245,9.719417 -7.23068,17.087872 -14.4616,24.338509 -4.80725,4.82038 -6.71345,6.31756 -10.48351,8.23429 -7.93906,4.03616 -14.19151,5.39877 -23.31616,5.08126 -8.74048,-0.30419 -12.08139,-1.39872 -18.93166,-6.20241 l -3.41898,-2.39753 -0.29585,14.79733 c -0.1952,9.7691 -0.43733,16.09315 -0.71223,18.6108 -0.2289,2.09742 -0.54716,5.23365 -0.70702,6.96948 -0.41095,4.46278 -1.25805,9.79059 -1.68721,10.61194 -1.63272,3.12468 -8.14691,5.05031 -15.15594,4.48017 z m 51.91701,-53.6398 c 4.64968,-0.9526 10.25826,-4.34021 13.75431,-8.30764 3.06644,-3.4799 3.92619,-4.793035 5.83608,-8.913783 1.80363,-3.891654 1.84867,-4.042234 2.67487,-8.941973 0.83105,-4.928499 0.83891,-5.059306 0.71287,-11.821629 -0.14193,-7.6116 -0.44232,-9.876578 -1.88402,-14.201973 -1.3828,-4.14859 -2.7436,-7.06586 -5.24268,-11.239107 -2.00026,-3.340326 -2.74319,-4.306902 -5.38291,-7.00357 -3.2107,-3.279935 -5.35361,-4.876748 -9.53922,-7.108322 -4.74034,-2.52734 -9.54934,-3.711738 -15.0578,-3.708556 -6.0695,0.0034 -9.79313,1.437741 -13.51171,5.204268 -5.64469,5.71754 -5.81858,6.794853 -5.84567,36.216267 -0.0147,16.467481 0.0776,18.74443 0.94232,23.090291 0.91538,4.601417 2.29436,7.364127 4.90569,9.828377 1.54333,1.4564 4.64576,3.61583 6.64009,4.62178 2.61713,1.32012 7.28264,2.58681 10.78294,2.92759 2.04575,0.19909 7.90725,-0.16929 10.21484,-0.64202 z"
     id="path3166"
     inkscape:connector-curvature="0"
     sodipodi:nodetypes="cssscccssssssssssssscsssscsssssssssssssssss" />
</svg>
